# File generated by ImageToStl.com - Free Image and 3D model conversion tools

o obj1
v 0 175 25
v 7.97605 165.544 23.6935
v 16.0697 175 19.1511
v -9.9952 167.191 22.915
v -16.0697 175 19.1511
v 0 157.5 25
v 0 17.5 25
v 0 0 25
v 16.7112 10.5358 18.594
v -16.291 10.8847 18.9632
v 16.0697 0 19.1511
v -16.0697 0 19.1511
v 24.6202 175 4.3412
v 21.8891 164.613 12.0775
v 16.3332 156.191 18.9268
v 24.9755 158.189 1.10544
v 21.6506 175 -12.5
v 17.6878 157.01 -17.6675
v 8.5505 175 -23.4923
v 1.8572 153.537 -24.9309
v -8.5505 175 -23.4923
v -17.0795 156.51 -18.2562
v -21.6506 175 -12.5
v -24.8874 157.352 -2.36971
v -24.6202 175 4.3412
v -18.3959 157.9 16.929
v 0 140 25
v 11.7963 139.218 22.042
v -14.3971 144.794 20.4383
v -16.0431 129.58 19.1734
v 0 122.5 25
v -13.5469 111.257 21.0114
v 0 105 25
v 12.1648 111.57 21.8407
v 19.9704 123.178 15.0393
v 0 87.5 25
v 12.0687 98.6762 21.894
v -14.9761 93.5343 20.0179
v -12.806 77.9208 21.4711
v 0 70 25
v 13.7632 72.8927 20.8704
v 19.4355 90.0989 15.7245
v 0 52.5 25
v -16.61 62.8118 18.6844
v 10.9868 58.31 22.4564
v 0 35 25
v 15.3016 46.8212 19.7702
v -17.5558 43.1922 17.7987
v 18.6111 29.926 16.6922
v -15.866 27.3886 19.3202
v 24.6202 0 4.3412
v 21.6506 0 -12.5
v 24.8535 15.6395 2.70233
v 8.5505 0 -23.4923
v 20.2934 16.6718 -14.6006
v -8.5505 0 -23.4923
v 4.53919 16.3979 -24.5845
v -21.6506 0 -12.5
v -14.9468 14.1424 -20.0398
v -23.7924 11.3882 -7.67605
v -24.6202 0 4.3412
v -24.4669 22.5656 5.13518
v 16.7004 31.0603 -18.6037
v 24.5801 30.817 -4.56275
v 7.28926 38.8293 -23.9137
v 20.9638 49.358 -13.6205
v -7.02344 31.5206 -23.9932
v -5.49249 49.7908 -24.3892
v 9.73324 54.9257 -23.0275
v 24.663 46.1181 4.09119
v 20.8303 60.8422 13.8238
v -15.4046 72.445 -19.6901
v -10.7337 60.9768 -22.5785
v -21.7085 53.797 -12.3993
v -24.6999 73.3413 -3.86173
v 1.18506 71.1348 -24.9719
v -6.04958 90.1422 -24.257
v -20.9843 90.6333 -13.5889
v -17.6385 38.6089 -17.7168
v -24.9832 38.6797 -0.915324
v -24.6116 58.8722 4.38942
v 12.3404 100.018 -21.742
v -0.797902 116.448 -24.9873
v 15.1517 117.24 -19.8853
v 23.7295 107.641 -7.86834
v -3.44315 103.295 -24.7618
v 22.3765 87.9857 -11.1486
v 11.0876 84.6575 -22.4068
v 11.534 135.748 -22.1803
v 24.083 126.677 -6.70882
v -8.83835 138.489 -23.3855
v -20.4554 123.426 -14.3728
v -14.8616 105.855 -20.1031
v 19.3026 68.1223 -15.8874
v 23.7521 142.256 -7.79975
v -23.3673 141.133 -8.88643
v 24.7456 74.9612 3.55765
v 24.956 59.5413 -1.48178
v 24.8275 94.5254 2.93202
v -22.0261 26.3845 -11.8259
v 21.7081 104.828 12.3999
v -24.4822 107.855 -5.0617
v -24.9847 124.967 0.875194
v -22.3838 108.817 11.1339
v -23.5462 142.994 8.40099
v -21.9145 76.6451 12.0313
v -24.6151 92.3094 4.36983
v -22.5424 33.9639 10.8092
v 23.8444 142.49 7.51284
v 24.8018 114.196 3.14201
v 7.57681 175 8.74272
v -5.82277 175 10.6151
v 9.72866 175 -5.71933
v -4.02617 175 -11.4076
v -12.4164 175 -2.12053
v -0 175 -0
v 7.57681 0 8.74272
v -5.82277 0 10.6151
v 9.72866 0 -5.71933
v -4.02617 0 -11.4076
v -12.4164 0 -2.12053
v 0 0 0
vn 0.3378 0.1567 0.92808
vn -0.3362 0.18369 0.9237
vn 0.16165 0 0.98685
vn -0.20421 -0 0.97893
vn 0.35794 -0 0.93374
vn -0.34747 0 0.93769
vn 0.34188 0.02885 0.9393
vn -0.342 0.00927 0.93965
vn 0.8571 0.14321 0.49485
vn 0.4925 -0.00348 0.8703
vn 0.77462 0.00331 0.63241
vn 0.98336 0.05416 -0.17339
vn 0.95641 -0.03558 0.28986
vn 0.64082 0.07821 -0.7637
vn 0.92943 -0.10295 -0.35434
vn 0 0.06688 -0.99776
vn 0.42917 -0.0735 -0.90023
vn -0.64076 0.07932 -0.76363
vn -0.3452 -0.10488 -0.93265
vn -0.9816 0.08068 -0.17308
vn -0.89595 -0.08583 -0.43579
vn -0.86482 0.05276 0.4993
vn -0.94142 -0.10732 0.31971
vn -0.55608 -0.03227 0.8305
vn 0.24323 -0 0.96997
vn -0.30205 0 0.95329
vn 0.35289 0.07682 0.93251
vn -0.3965 0.12263 0.9098
vn 0.3305 -0.17713 0.92704
vn -0.39617 -0.21664 0.89225
vn -0.34137 0 0.93993
vn 0.24323 0 0.96997
vn -0.31524 -0.04471 0.94796
vn -0.28244 -0 0.95929
vn 0.25137 0 0.96789
vn -0.3209 0.05115 0.94573
vn 0.44502 -0.15804 0.88147
vn 0.42884 0.22436 0.87508
vn 0.24924 -0 0.96844
vn -0.31566 0 0.94887
vn 0.25029 0.00213 0.96817
vn -0.29494 -0.02976 0.95505
vn -0.26567 0 0.96406
vn 0.28739 -0 0.95781
vn 0.44407 -0.2396 0.86336
vn 0.41224 0.13363 0.90122
vn -0.2981 0.0473 0.95336
vn -0.3554 -0 0.93471
vn 0.22555 0 0.97423
vn -0.31806 -0.09392 0.94341
vn 0.27704 0.05161 0.95947
vn 0.32341 -0 0.94626
vn -0.37951 0 0.92519
vn 0.28216 -0.11668 0.95225
vn -0.36839 -0.0242 0.92936
vn 0.40762 0 0.91315
vn -0.33704 0 0.94149
vn 0.38489 -0.09192 0.91837
vn -0.35837 0.05143 0.93216
vn 0.37688 0.05377 0.9247
vn -0.34335 -0.01147 0.93914
vn 0.86573 -0.02628 0.49983
vn 0.98428 -0.03287 -0.17355
vn 0.88475 0.0355 0.46472
vn 0.64216 -0.04415 -0.7653
vn 0.9666 0.04695 -0.25194
vn 0 -0.06646 -0.99779
vn 0.53289 0.07422 -0.84292
vn -0.63936 -0.10316 -0.76196
vn -0.2392 0.12683 -0.96265
vn -0.97873 -0.11097 -0.17258
vn -0.81924 0.08608 -0.56695
vn -0.86599 -0.00898 0.49998
vn -0.99814 0.0089 -0.06032
vn -0.86506 -0.01177 0.50153
vn 0.53383 -0.10029 -0.83962
vn 0.86974 0.08179 -0.48668
vn 0.95986 -0.10685 -0.25934
vn 0.47136 -0.03143 -0.88138
vn 0.54921 0.09805 -0.82991
vn 0.86945 -0.06937 -0.48913
vn -0.01036 0.03116 -0.99946
vn -0.21175 -0.12399 -0.96943
vn 0.01735 -0.02312 -0.99958
vn 0.07441 0.04356 -0.99628
vn 0.62592 -0.05219 -0.77814
vn 0.85765 0.07532 0.50869
vn 0.8503 -0.11774 0.51296
vn 0.64824 0.0661 0.75856
vn 0.89479 -0.0441 0.4443
vn 0.95054 0.14787 0.27314
vn 0.95308 -0.15292 0.26124
vn -0.65127 -0.07507 -0.75512
vn -0.85648 0.09087 -0.50812
vn -0.29259 0.11977 -0.94871
vn -0.30821 -0.08166 -0.9478
vn -0.86066 -0.09632 -0.49998
vn -0.57653 0.09535 -0.8115
vn -0.61221 -0.16156 -0.77401
vn -0.56798 0.13221 -0.81235
vn -0.91138 -0.10489 -0.39797
vn -0.97945 0.06791 -0.1899
vn -0.98568 -0.08804 -0.14383
vn -0.23504 0.04703 -0.97085
vn 0.30184 0.05335 -0.95187
vn 0.788 -0.0626 -0.61248
vn 0.17714 -0.05247 -0.98279
vn 0.70992 -0.02744 -0.70375
vn 0.11782 0.03334 -0.99248
vn 0.75616 0.05675 -0.65192
vn 0.17299 -0.07198 -0.98229
vn 0.30676 -0.05784 -0.95003
vn 0.79691 0.08155 -0.59857
vn 0.82106 0.0195 -0.5705
vn 0.07195 0.09838 -0.99254
vn -0.50477 -0.12204 -0.85458
vn -0.42624 0.15495 -0.89124
vn -0.36602 0.05769 -0.92882
vn 0.10941 -0.06131 -0.9921
vn -0.49746 0.02289 -0.86718
vn 0.46223 0.1387 -0.87585
vn 0.42482 -0.14148 -0.89415
vn 0.13486 0.08845 -0.98691
vn 0.04099 -0.13087 -0.99055
vn 0.40169 0.07742 -0.9125
vn 0.7793 -0.09405 -0.61955
vn 0.76809 -0.02848 -0.6397
vn -0.69247 0.10718 -0.71344
vn -0.71214 -0.12926 -0.69003
vn -0.31226 0.12524 -0.94171
vn 0.94593 0.11236 -0.3043
vn 0.93825 0.04157 -0.34345
vn 0.96682 -0.09284 -0.23797
vn 0.63058 -0.03783 -0.77521
vn 0.69533 0.06319 -0.71591
vn 0.96133 -0.07361 0.26539
vn 0.96816 -0.11372 -0.22301
vn 0.9639 0.08387 0.2527
vn 0.84462 -0.12258 0.52114
vn 0.92038 0.00865 0.39093
vn 0.82364 0.16592 0.5423
vn 0.98588 -0.00947 -0.16721
vn 0.97748 0.09984 -0.18589
vn -0.80406 -0.06872 -0.59057
vn -0.65057 0.12626 -0.74888
vn -0.9889 0.08222 -0.1238
vn 0.68086 0.05972 0.72998
vn 0.70246 -0.0023 0.71172
vn 0.92706 -0.05949 0.37016
vn -0.84426 -0.09687 -0.52711
vn -0.83194 0.10116 -0.54557
vn -0.58003 -0.11199 -0.80686
vn -0.37023 0.03775 -0.92817
vn -0.95809 -0.07162 -0.27736
vn -0.95402 0.07286 -0.29075
vn -0.74071 -0.0336 0.67098
vn -0.74791 0.02312 0.6634
vn -0.87926 -0.12206 0.46043
vn -0.79822 0.03637 0.60126
vn -0.90362 0.11634 0.41223
vn -0.71683 -0.03482 0.69638
vn -0.72222 0.05467 0.6895
vn -0.58414 -0.17253 -0.7931
vn -0.90776 0.13431 -0.3974
vn -0.99565 -0.09321 -0.00027
vn -0.99595 0.08772 -0.01975
vn -0.93889 0.14609 0.31167
vn -0.7882 -0.077 0.61059
vn -0.89146 0.0945 -0.44314
vn -0.98834 -0.07499 0.13251
vn -0.98889 0.08319 0.12319
vn -0.97657 -0.10546 -0.1876
vn -0.98243 -0.09237 -0.16218
vn -0.97318 0.05287 0.22386
vn -0.91903 -0.08425 0.38507
vn -0.91577 0.26862 0.29869
vn -0.84338 -0.10215 0.52751
vn -0.85668 0.01091 0.51573
vn -0.82697 -0.13239 0.54644
vn -0.9844 0.08259 0.15536
vn -0.8748 0.02032 0.48407
vn -0.85895 -0.08665 0.50468
vn 0.77663 -0.09326 0.62301
vn 0.75446 0.10138 0.64847
vn -0.97921 -0.07705 0.18763
vn -0.97413 0.09362 -0.20568
vn -0.85034 0.10555 0.51554
vn 0.92097 0.1338 -0.36593
vn -0.79655 -0.02702 0.60397
vn 0.88836 0.11718 0.44394
vn 0.88055 -0.25704 0.39819
vn 0.97761 -0.13236 0.16357
vn 0.99976 0.02079 -0.00634
vn 0.99726 -0.07384 -0.00488
vn 0.95012 0.22511 0.21588
vn 0.93554 0.03808 0.35116
vn 0.68872 -0.03892 0.72398
vn 0.66527 -0.04561 0.74521
vn 0.98745 -0.04259 -0.1521
vn 0.9755 0.18265 0.12264
vn 0.99593 -0.01306 -0.08921
vn 0.96404 -0.25884 0.06022
vn 0 1 0
vn -0 -1 0
f 1//1 2//1 3//1
f 4//2 1//2 5//2
f 2//3 1//3 6//3
f 1//4 4//4 6//4
f 7//5 8//5 9//5
f 8//6 7//6 10//6
f 8//7 11//7 9//7
f 12//8 8//8 10//8
f 13//9 3//9 14//9
f 2//10 15//10 3//10
f 14//11 3//11 15//11
f 13//12 16//12 17//12
f 14//13 16//13 13//13
f 17//14 18//14 19//14
f 16//15 18//15 17//15
f 19//16 20//16 21//16
f 19//17 18//17 20//17
f 21//18 22//18 23//18
f 22//19 21//19 20//19
f 23//20 24//20 25//20
f 24//21 23//21 22//21
f 5//22 25//22 26//22
f 25//23 24//23 26//23
f 26//24 4//24 5//24
f 27//25 28//25 6//25
f 29//26 27//26 6//26
f 6//27 28//27 15//27
f 26//28 29//28 6//28
f 15//29 2//29 6//29
f 4//30 26//30 6//30
f 27//31 30//31 31//31
f 28//32 27//32 31//32
f 30//33 27//33 29//33
f 31//34 32//34 33//34
f 33//35 34//35 31//35
f 31//36 30//36 32//36
f 28//37 31//37 35//37
f 34//38 35//38 31//38
f 36//39 37//39 33//39
f 38//40 36//40 33//40
f 33//41 37//41 34//41
f 32//42 38//42 33//42
f 36//43 39//43 40//43
f 40//44 41//44 36//44
f 36//45 42//45 37//45
f 41//46 42//46 36//46
f 36//47 38//47 39//47
f 43//48 40//48 44//48
f 45//49 40//49 43//49
f 40//50 39//50 44//50
f 41//51 40//51 45//51
f 46//52 47//52 43//52
f 48//53 46//53 43//53
f 47//54 45//54 43//54
f 48//55 43//55 44//55
f 46//56 7//56 49//56
f 7//57 46//57 50//57
f 46//58 49//58 47//58
f 46//59 48//59 50//59
f 9//60 49//60 7//60
f 10//61 7//61 50//61
f 51//62 9//62 11//62
f 52//63 53//63 51//63
f 9//64 51//64 53//64
f 52//65 54//65 55//65
f 53//66 52//66 55//66
f 54//67 56//67 57//67
f 54//68 57//68 55//68
f 58//69 59//69 56//69
f 56//70 59//70 57//70
f 60//71 58//71 61//71
f 58//72 60//72 59//72
f 10//73 61//73 12//73
f 62//74 60//74 61//74
f 61//75 10//75 62//75
f 55//76 57//76 63//76
f 63//77 64//77 55//77
f 55//78 64//78 53//78
f 63//79 57//79 65//79
f 63//80 65//80 66//80
f 64//81 63//81 66//81
f 67//82 65//82 57//82
f 59//83 67//83 57//83
f 68//84 65//84 67//84
f 68//85 69//85 65//85
f 69//86 66//86 65//86
f 70//87 47//87 49//87
f 47//88 70//88 71//88
f 45//89 47//89 71//89
f 9//90 53//90 49//90
f 49//91 53//91 64//91
f 64//92 70//92 49//92
f 72//93 73//93 74//93
f 72//94 74//94 75//94
f 73//95 72//95 76//95
f 72//96 77//96 76//96
f 72//97 75//97 78//97
f 78//98 77//98 72//98
f 73//99 68//99 74//99
f 74//100 68//100 79//100
f 79//101 80//101 74//101
f 74//102 80//102 81//102
f 74//103 81//103 75//103
f 68//104 73//104 76//104
f 82//105 83//105 84//105
f 84//106 85//106 82//106
f 86//107 83//107 82//107
f 87//108 88//108 82//108
f 88//109 77//109 82//109
f 82//110 85//110 87//110
f 77//111 86//111 82//111
f 83//112 89//112 84//112
f 89//113 90//113 84//113
f 85//114 84//114 90//114
f 83//115 91//115 89//115
f 92//116 91//116 83//116
f 93//117 92//117 83//117
f 83//118 86//118 93//118
f 69//119 68//119 76//119
f 67//120 79//120 68//120
f 94//121 69//121 76//121
f 76//122 88//122 94//122
f 77//123 88//123 76//123
f 89//124 91//124 20//124
f 20//125 18//125 89//125
f 95//126 89//126 18//126
f 89//127 95//127 90//127
f 91//128 92//128 96//128
f 96//129 22//129 91//129
f 20//130 91//130 22//130
f 94//131 97//131 98//131
f 94//132 98//132 66//132
f 97//133 94//133 87//133
f 94//134 66//134 69//134
f 88//135 87//135 94//135
f 71//136 98//136 97//136
f 66//137 98//137 70//137
f 98//138 71//138 70//138
f 41//139 97//139 42//139
f 42//140 97//140 99//140
f 97//141 41//141 71//141
f 87//142 99//142 97//142
f 70//143 64//143 66//143
f 60//144 100//144 59//144
f 67//145 59//145 100//145
f 60//146 62//146 100//146
f 101//147 37//147 42//147
f 37//148 101//148 34//148
f 42//149 99//149 101//149
f 92//150 93//150 102//150
f 102//151 93//151 78//151
f 77//152 78//152 93//152
f 86//153 77//153 93//153
f 92//154 103//154 96//154
f 92//155 102//155 103//155
f 32//156 30//156 104//156
f 38//157 32//157 104//157
f 105//158 103//158 30//158
f 29//159 105//159 30//159
f 30//160 103//160 104//160
f 106//161 39//161 38//161
f 39//162 106//162 44//162
f 79//163 67//163 100//163
f 80//164 79//164 100//164
f 105//165 24//165 96//165
f 103//166 105//166 96//166
f 105//167 26//167 24//167
f 105//168 29//168 26//168
f 22//169 96//169 24//169
f 102//170 104//170 103//170
f 104//171 102//171 107//171
f 78//172 107//172 102//172
f 80//173 100//173 62//173
f 108//174 80//174 62//174
f 80//175 48//175 81//175
f 80//176 108//176 48//176
f 107//177 38//177 104//177
f 62//178 10//178 50//178
f 50//179 108//179 62//179
f 106//180 75//180 81//180
f 44//181 81//181 48//181
f 81//182 44//182 106//182
f 28//183 109//183 15//183
f 109//184 28//184 35//184
f 75//185 106//185 107//185
f 107//186 78//186 75//186
f 38//187 107//187 106//187
f 18//188 16//188 95//188
f 108//189 50//189 48//189
f 16//190 15//190 109//190
f 16//191 14//191 15//191
f 90//192 109//192 35//192
f 109//193 90//193 95//193
f 109//194 95//194 16//194
f 35//195 110//195 90//195
f 110//196 35//196 101//196
f 35//197 34//197 101//197
f 71//198 41//198 45//198
f 99//199 87//199 85//199
f 85//200 101//200 99//200
f 110//201 85//201 90//201
f 85//202 110//202 101//202
f 3//203 111//203 1//203
f 1//203 112//203 5//203
f 1//203 111//203 112//203
f 13//203 111//203 3//203
f 17//203 113//203 13//203
f 13//203 113//203 111//203
f 19//203 113//203 17//203
f 21//203 114//203 19//203
f 114//203 113//203 19//203
f 23//203 114//203 21//203
f 25//203 115//203 23//203
f 23//203 115//203 114//203
f 5//203 112//203 25//203
f 112//203 115//203 25//203
f 112//203 111//203 116//203
f 116//203 115//203 112//203
f 114//203 115//203 116//203
f 116//203 113//203 114//203
f 111//203 113//203 116//203
f 11//204 8//204 117//204
f 8//204 12//204 118//204
f 8//204 118//204 117//204
f 51//204 11//204 117//204
f 52//204 51//204 119//204
f 51//204 117//204 119//204
f 54//204 52//204 119//204
f 56//204 54//204 120//204
f 120//204 54//204 119//204
f 58//204 56//204 120//204
f 61//204 58//204 121//204
f 58//204 120//204 121//204
f 12//204 61//204 118//204
f 118//204 61//204 121//204
f 118//204 122//204 117//204
f 122//204 118//204 121//204
f 120//204 122//204 121//204
f 122//204 120//204 119//204
f 117//204 122//204 119//204
# Vertices: 122, normals: 204, texture coordinates: 0, faces: 240

